<?xml version="1.0" encoding="UTF-8" standalone="no"?>
<svg
   width="16"
   height="16"
   fill="currentColor"
   class="bi bi-person-circle"
   viewBox="0 0 16 16"
   version="1.1"
   id="svg2"
   sodipodi:docname="icon_profile.svg"
   xmlns:inkscape="http://www.inkscape.org/namespaces/inkscape"
   xmlns:sodipodi="http://sodipodi.sourceforge.net/DTD/sodipodi-0.dtd"
   xmlns="http://www.w3.org/2000/svg"
   xmlns:svg="http://www.w3.org/2000/svg">
  <defs
     id="defs2" />
  <sodipodi:namedview
     id="namedview2"
     pagecolor="#ffffff"
     bordercolor="#000000"
     borderopacity="0.25"
     inkscape:showpageshadow="2"
     inkscape:pageopacity="0.0"
     inkscape:pagecheckerboard="0"
     inkscape:deskcolor="#d1d1d1" />
  <path
     d="M 11,6 A 3,3 0 1 1 5,6 3,3 0 0 1 11,6"
     id="path1"
     style="fill:#ffffff" />
  <path
     fill-rule="evenodd"
     d="M 0,8 A 8,8 0 1 1 16,8 8,8 0 0 1 0,8 M 8,1 A 7,7 0 0 0 2.532,12.37 C 3.242,11.226 4.805,10 8,10 c 3.195,0 4.757,1.225 5.468,2.37 A 7,7 0 0 0 8,1"
     id="path2"
     style="fill:#ffffff" />
</svg>
