<?xml version="1.0" encoding="UTF-8" standalone="no"?>
<svg
   width="16.093803"
   height="16.091497"
   fill="currentColor"
   class="bi bi-search"
   viewBox="0 0 16.093803 16.091497"
   version="1.1"
   id="svg1"
   sodipodi:docname="icon_search.svg"
   xmlns:inkscape="http://www.inkscape.org/namespaces/inkscape"
   xmlns:sodipodi="http://sodipodi.sourceforge.net/DTD/sodipodi-0.dtd"
   xmlns="http://www.w3.org/2000/svg"
   xmlns:svg="http://www.w3.org/2000/svg">
  <defs
     id="defs1" />
  <sodipodi:namedview
     id="namedview1"
     pagecolor="#ffffff"
     bordercolor="#000000"
     borderopacity="0.25"
     inkscape:showpageshadow="2"
     inkscape:pageopacity="0.0"
     inkscape:pagecheckerboard="0"
     inkscape:deskcolor="#d1d1d1" />
  <path
     d="M 11.818064,10.417264 C 16.581383,3.917357 7.6359801,-3.6748935 1.9809489,1.9841857 -3.6740824,7.6432649 3.9245673,16.583233 10.421064,11.815264 h -10e-4 c 0.02933,0.04 0.062,0.07833 0.098,0.115 l 3.85,3.85 c 0.942666,0.943333 2.357666,-0.470667 1.415,-1.414 l -3.85,-3.85 c -0.03573,-0.03621 -0.07418,-0.06964 -0.115,-0.1 z m -0.83984,-3.8439998 c 0,2.4312473 -1.9709141,4.4021578 -4.4021597,4.4021578 -2.4312456,0 -4.4021596,-1.9709105 -4.4021596,-4.4021578 0,-2.4312473 1.970914,-4.4021577 4.4021596,-4.4021577 2.4312456,0 4.4021597,1.9709104 4.4021597,4.4021577"
     id="path1"
     sodipodi:nodetypes="cscccccccccsssc"
     style="fill:#ffffff" />
</svg>
