<?xml version="1.0" encoding="UTF-8" standalone="no"?>
<svg
   width="16"
   height="12"
   fill="currentColor"
   class="bi bi-people-fill"
   viewBox="0 0 16 12"
   version="1.1"
   id="svg1"
   sodipodi:docname="icon_friends.svg"
   xmlns:inkscape="http://www.inkscape.org/namespaces/inkscape"
   xmlns:sodipodi="http://sodipodi.sourceforge.net/DTD/sodipodi-0.dtd"
   xmlns="http://www.w3.org/2000/svg"
   xmlns:svg="http://www.w3.org/2000/svg">
  <defs
     id="defs1" />
  <sodipodi:namedview
     id="namedview1"
     pagecolor="#ffffff"
     bordercolor="#000000"
     borderopacity="0.25"
     inkscape:showpageshadow="2"
     inkscape:pageopacity="0.0"
     inkscape:pagecheckerboard="0"
     inkscape:deskcolor="#d1d1d1" />
  <path
     d="m 7,12 c 0,0 -1,0 -1,-1 0,-1 1,-4 5,-4 4,0 5,3 5,4 0,1 -1,1 -1,1 z m 4,-6 a 3,3 0 1 0 0,-6 3,3 0 0 0 0,6 M 5.216,12 A 2.24,2.24 0 0 1 5,11 C 5,9.645 5.68,8.25 6.936,7.28 A 6.3,6.3 0 0 0 5,7 c -4,0 -5,3 -5,4 0,1 1,1 1,1 z M 4.5,6 a 2.5,2.5 0 1 0 0,-5 2.5,2.5 0 0 0 0,5"
     id="path1"
     style="fill:#ffffff" />
</svg>
