<svg width="64" height="64" viewBox="0 0 64 64" fill="none" xmlns="http://www.w3.org/2000/svg">
<g clip-path="url(#clip0_258_188)">
<path d="M32.0005 18.9995C30.2933 18.9995 28.6028 19.3358 27.0256 19.9891C25.4484 20.6424 24.0153 21.6 22.8081 22.8071C21.6009 24.0143 20.6434 25.4474 19.9901 27.0246C19.3367 28.6019 19.0005 30.2923 19.0005 31.9995C19.0005 33.7067 19.3367 35.3972 19.9901 36.9744C20.6434 38.5516 21.6009 39.9847 22.8081 41.1919C24.0153 42.3991 25.4484 43.3566 27.0256 44.0099C28.6028 44.6632 30.2933 44.9995 32.0005 44.9995C35.4483 44.9995 38.7549 43.6299 41.1929 41.1919C43.6308 38.7539 45.0005 35.4473 45.0005 31.9995C45.0005 28.5517 43.6308 25.2451 41.1929 22.8071C38.7549 20.3691 35.4483 18.9995 32.0005 18.9995ZM23.0054 31.9995C23.0054 29.6139 23.9531 27.3259 25.64 25.639C27.3269 23.9521 29.6148 23.0044 32.0005 23.0044C34.3861 23.0044 36.6741 23.9521 38.361 25.639C40.0479 27.3259 40.9956 29.6139 40.9956 31.9995C40.9956 34.3851 40.0479 36.6731 38.361 38.36C36.6741 40.0469 34.3861 40.9946 32.0005 40.9946C29.6148 40.9946 27.3269 40.0469 25.64 38.36C23.9531 36.6731 23.0054 34.3851 23.0054 31.9995Z" fill="white"/>
<path d="M39.1849 5.36984C37.0768 -1.79061 26.9242 -1.79061 24.816 5.36984L24.44 6.64592C24.2928 7.14576 24.0356 7.60632 23.6872 7.99384C23.3389 8.38136 22.9082 8.68601 22.4269 8.88547C21.9455 9.08493 21.4256 9.17413 20.9052 9.14655C20.3849 9.11896 19.8773 8.97529 19.4197 8.72605L18.2516 8.08601C11.6912 4.51779 4.51877 11.6942 8.09099 18.2506L8.72703 19.4187C8.97627 19.8763 9.11995 20.3839 9.14753 20.9042C9.17512 21.4246 9.08591 21.9445 8.88645 22.4259C8.68699 22.9073 8.38234 23.3379 7.99482 23.6863C7.6073 24.0346 7.14674 24.2918 6.6469 24.439L5.37082 24.8151C-1.78962 26.9232 -1.78962 37.0758 5.37082 39.184L6.6469 39.56C7.14674 39.7072 7.6073 39.9644 7.99482 40.3128C8.38234 40.6611 8.68699 41.0918 8.88645 41.5731C9.08591 42.0545 9.17512 42.5744 9.14753 43.0948C9.11995 43.6151 8.97627 44.1227 8.72703 44.5803L8.087 45.7484C4.51877 52.3088 11.6912 59.4852 18.2516 55.909L19.4197 55.273C19.8773 55.0237 20.3849 54.8801 20.9052 54.8525C21.4256 54.8249 21.9455 54.9141 22.4269 55.1135C22.9082 55.313 23.3389 55.6177 23.6872 56.0052C24.0356 56.3927 24.2928 56.8533 24.44 57.3531L24.816 58.6292C26.9242 65.7896 37.0768 65.7896 39.1849 58.6292L39.561 57.3531C39.7082 56.8533 39.9654 56.3927 40.3137 56.0052C40.6621 55.6177 41.0927 55.313 41.5741 55.1135C42.0555 54.9141 42.5754 54.8249 43.0958 54.8525C43.6161 54.8801 44.1237 55.0237 44.5813 55.273L45.7494 55.913C52.3098 59.4852 59.4862 52.3048 55.91 45.7484L55.2739 44.5803C55.0247 44.1227 54.881 43.6151 54.8535 43.0948C54.8259 42.5744 54.9151 42.0545 55.1145 41.5731C55.314 41.0918 55.6186 40.6611 56.0062 40.3128C56.3937 39.9644 56.8542 39.7072 57.3541 39.56L58.6302 39.184C65.7906 37.0758 65.7906 26.9232 58.6302 24.8151L57.3541 24.439C56.8542 24.2918 56.3937 24.0346 56.0062 23.6863C55.6186 23.3379 55.314 22.9073 55.1145 22.4259C54.9151 21.9445 54.8259 21.4246 54.8535 20.9042C54.881 20.3839 55.0247 19.8763 55.2739 19.4187L55.914 18.2506C59.4862 11.6902 52.3058 4.51779 45.7494 8.09001L44.5813 8.72605C44.1237 8.97529 43.6161 9.11896 43.0958 9.14655C42.5754 9.17413 42.0555 9.08493 41.5741 8.88547C41.0927 8.68601 40.6621 8.38136 40.3137 7.99384C39.9654 7.60632 39.7082 7.14576 39.561 6.64592L39.1849 5.36984ZM28.6523 6.50191C29.6363 3.1617 34.3646 3.1617 35.3487 6.50191L35.7247 7.77799C36.0408 8.8504 36.5929 9.83847 37.3405 10.6698C38.0881 11.5011 39.0123 12.1545 40.0453 12.5822C41.0783 13.0099 42.1939 13.201 43.3103 13.1415C44.4268 13.082 45.5157 12.7734 46.4974 12.2383L47.6615 11.5982C50.7177 9.93813 54.0619 13.2783 52.3978 16.3385L51.7617 17.5066C51.2274 18.4884 50.9196 19.5772 50.8607 20.6934C50.8018 21.8096 50.9935 22.9248 51.4215 23.9573C51.8495 24.9899 52.5032 25.9135 53.3345 26.6607C54.1658 27.4078 55.1538 27.9595 56.226 28.2753L57.4981 28.6513C60.8383 29.6354 60.8383 34.3637 57.4981 35.3477L56.222 35.7237C55.1496 36.0398 54.1615 36.5919 53.3302 37.3395C52.4989 38.0872 51.8455 39.0113 51.4178 40.0443C50.9901 41.0773 50.799 42.1929 50.8585 43.3093C50.918 44.4258 51.2266 45.5148 51.7617 46.4964L52.4018 47.6605C54.0619 50.7167 50.7217 54.0609 47.6615 52.3968L46.4974 51.7607C45.5155 51.2257 44.4262 50.9172 43.3096 50.858C42.1929 50.7987 41.0772 50.9902 40.0441 51.4183C39.0111 51.8464 38.087 52.5003 37.3396 53.332C36.5921 54.1638 36.0404 55.1523 35.7247 56.225L35.3487 57.4971C34.3646 60.8373 29.6363 60.8373 28.6523 57.4971L28.2763 56.221C27.96 55.1492 27.408 54.1616 26.6607 53.3308C25.9133 52.4999 24.9896 51.8467 23.9571 51.4191C22.9247 50.9914 21.8096 50.8002 20.6937 50.8593C19.5777 50.9184 18.4891 51.2264 17.5076 51.7607L16.3395 52.4008C13.2833 54.0609 9.93911 50.7207 11.6032 47.6605L12.2393 46.4964C12.7751 45.5146 13.0843 44.4253 13.1442 43.3083C13.2041 42.1914 13.0132 41.0753 12.5855 40.0418C12.1577 39.0083 11.504 38.0837 10.6723 37.3358C9.84055 36.5879 8.85194 36.0357 7.77898 35.7197L6.50289 35.3437C3.16269 34.3597 3.16269 29.6314 6.50289 28.6473L7.77898 28.2713C8.85027 27.9549 9.83726 27.403 10.6677 26.6559C11.4982 25.9089 12.1511 24.9856 12.5787 23.9536C13.0063 22.9217 13.1977 21.8072 13.139 20.6917C13.0802 19.5762 12.7728 18.4879 12.2393 17.5066L11.5992 16.3385C9.93911 13.2823 13.2793 9.93813 16.3395 11.6022L17.5076 12.2383C18.4891 12.7726 19.5777 13.0806 20.6937 13.1397C21.8096 13.1989 22.9247 13.0076 23.9571 12.58C24.9896 12.1523 25.9133 11.4991 26.6607 10.6683C27.408 9.83737 27.96 8.84984 28.2763 7.77799L28.6523 6.50191Z" fill="white"/>
</g>
<defs>
<clipPath id="clip0_258_188">
<rect width="64" height="64" fill="white"/>
</clipPath>
</defs>
</svg>
